<svg xmlns="http://www.w3.org/2000/svg" xmlns:xlink="http://www.w3.org/1999/xlink" viewBox="0,0,256,256" width="64px" height="64px" fill-rule="nonzero"><g fill="#e3e3e3" fill-rule="nonzero" stroke="none" stroke-width="1" stroke-linecap="butt" stroke-linejoin="miter" stroke-miterlimit="10" stroke-dasharray="" stroke-dashoffset="0" font-family="none" font-weight="none" font-size="none" text-anchor="none" style="mix-blend-mode: normal"><g transform="scale(4,4)"><path d="M48,8h-32c-4.418,0 -8,3.582 -8,8v32c0,4.418 3.582,8 8,8h32c4.418,0 8,-3.582 8,-8v-32c0,-4.418 -3.582,-8 -8,-8zM22.406,39h-4.722c-0.759,0 -1.241,-0.813 -0.878,-1.479l5.194,-9.521l-2.403,-5.606c-0.282,-0.66 0.202,-1.394 0.92,-1.394h4.824c0.4,0 0.762,0.238 0.919,0.606l2.74,6.394l-5.716,10.479c-0.175,0.321 -0.512,0.521 -0.878,0.521zM46.233,16.464l-10.233,19.536l6.206,11.526c0.359,0.666 -0.124,1.474 -0.88,1.474h-5.729c-0.368,0 -0.706,-0.202 -0.88,-0.526l-6.717,-12.474l10.719,-20.464c0.173,-0.33 0.514,-0.536 0.886,-0.536h5.742c0.752,0 1.235,0.798 0.886,1.464z"></path></g></g></svg>